Coordinates
version=1
nRows=13
nColumns=63
inDegrees=yes

Units are S.I. units (second, meters, Newtons, ...)
If the header above contains a line with 'inDegrees', this indicates whether rotational values are in degrees (yes) or radians (no).

endheader
time	pelvis_tilt	pelvis_list	pelvis_rotation	pelvis_tx	pelvis_ty	pelvis_tz	hip_flexion_r	hip_adduction_r	hip_rotation_r	knee_angle_r	knee_angle_r_beta	ankle_angle_r	subtalar_angle_r	mtp_angle_r	hip_flexion_l	hip_adduction_l	hip_rotation_l	knee_angle_l	knee_angle_l_beta	ankle_angle_l	subtalar_angle_l	mtp_angle_l	L5_S1_Flex_Ext	L5_S1_Lat_Bending	L5_S1_axial_rotation	L4_L5_Flex_Ext	L4_L5_Lat_Bending	L4_L5_axial_rotation	L3_L4_Flex_Ext	L3_L4_Lat_Bending	L3_L4_axial_rotation	L2_L3_Flex_Ext	L2_L3_Lat_Bending	L2_L3_axial_rotation	L1_L2_Flex_Ext	L1_L2_Lat_Bending	L1_L2_axial_rotation	L1_T12_Flex_Ext	L1_T12_Lat_Bending	L1_T12_axial_rotation	Abs_r3	Abs_r2	Abs_r1	Abs_t1	Abs_t2	neck_flexion	neck_bending	neck_rotation	arm_flex_r	arm_add_r	arm_rot_r	elbow_flex_r	pro_sup_r	wrist_flex_r	wrist_dev_r	arm_flex_l	arm_add_l	arm_rot_l	elbow_flex_l	pro_sup_l	wrist_flex_l	wrist_dev_l
3.142857	-2.369558	-3.422852	94.799442	0.210463	0.986674	0.535799	4.868147	-4.518411	-15.250157	10.079157	0.175914	24.061174	17.237535	0.000000	4.246352	2.855928	-10.701806	5.153153	0.089939	20.166448	9.713982	0.000000	0.242412	-0.322107	0.559949	0.450184	-0.428402	0.594946	0.398259	-0.783171	0.594946	0.277053	-0.783171	0.489956	0.225104	-0.656841	0.454959	0.138514	-0.498944	0.419962	1.731527	-3.643739	3.114271	0.000000	0.000000	26.422682	-0.850732	-9.485049	4.080418	-12.297410	24.417052	85.716393	79.817112	-1.671374	4.047758	8.387233	-17.505822	30.892330	90.676397	76.934982	-10.273209	3.341976
3.166667	-2.266947	-3.441368	94.755747	0.209092	0.985205	0.535189	5.004765	-4.591157	-15.453743	10.472056	0.182772	24.311313	17.326410	0.000000	4.014933	2.918050	-9.547220	4.704149	0.082103	20.231179	8.306840	0.000000	0.261053	-0.281638	0.541932	0.484802	-0.374579	0.575803	0.428884	-0.684775	0.575803	0.298357	-0.684775	0.474191	0.242414	-0.574317	0.440320	0.149166	-0.436258	0.406449	1.864675	-3.185949	3.014063	0.000000	0.000000	26.440288	-1.232883	-8.869609	3.766149	-11.550100	31.153928	73.041362	72.677110	-3.622418	4.611752	8.469849	-16.002685	43.298248	77.696874	70.883659	-9.656993	5.335737
3.190476	-2.163758	-3.481110	94.679312	0.207682	0.983652	0.534370	5.152272	-4.674945	-15.674659	10.878688	0.189869	24.534102	17.426857	0.000000	3.766765	2.991096	-8.141148	4.207192	0.073429	20.214141	6.504563	0.000000	0.284632	-0.240428	0.548106	0.528591	-0.319770	0.582362	0.467623	-0.584578	0.582362	0.325306	-0.584578	0.479593	0.264310	-0.490282	0.445336	0.162639	-0.372424	0.411079	2.033101	-2.719775	3.048400	0.000000	0.000000	26.516413	-1.767703	-8.408917	3.906714	-10.759341	38.464354	60.698591	65.065482	-5.265619	5.167813	9.128860	-14.146270	58.722496	64.862425	64.324184	-10.263337	6.408937
3.214286	-2.093585	-3.546416	94.562147	0.206394	0.982069	0.533372	5.309542	-4.787824	-15.873925	11.272545	0.196743	24.745501	17.523538	0.000000	3.523069	3.089041	-6.847898	3.698673	0.064554	20.191102	4.802770	0.000000	0.310843	-0.206156	0.582258	0.577267	-0.274187	0.618649	0.510684	-0.501247	0.618649	0.355263	-0.501247	0.509476	0.288649	-0.420393	0.473085	0.177616	-0.319335	0.436694	2.220321	-2.332075	3.238345	0.000000	0.000000	26.648349	-2.383609	-8.186585	4.563815	-10.014799	46.476068	49.043161	56.877944	-6.640422	5.301057	10.284744	-12.083703	76.660169	52.591645	57.380433	-11.930059	6.737705
3.238095	-2.079048	-3.640890	94.418485	0.205355	0.980453	0.532211	5.468812	-4.934439	-15.983454	11.617340	0.202761	24.973793	17.546018	0.000000	3.304421	3.223514	-5.673568	3.214873	0.056110	20.184066	3.227625	0.000000	0.338631	-0.183533	0.629762	0.628872	-0.244099	0.669122	0.556338	-0.446242	0.669122	0.387022	-0.446242	0.551041	0.314453	-0.374260	0.511681	0.193494	-0.284292	0.472321	2.418810	-2.076160	3.502545	0.000000	0.000000	26.835421	-2.985261	-8.125292	5.749589	-9.363269	55.123093	38.376390	48.381612	-8.269830	4.825391	11.748719	-10.002162	96.485101	41.233412	50.296171	-14.228120	6.429468
3.261905	-2.153232	-3.766206	94.273302	0.204654	0.978871	0.530965	5.631619	-5.144989	-16.058320	11.904638	0.207775	25.234854	17.556188	0.000000	3.123096	3.419818	-4.686503	2.767071	0.048295	20.153939	1.883387	0.000000	0.366104	-0.180458	0.685281	0.679892	-0.240009	0.728111	0.601472	-0.438765	0.728111	0.418420	-0.438765	0.599621	0.339964	-0.367990	0.556791	0.209192	-0.279529	0.513961	2.615044	-2.041376	3.811326	0.000000	0.000000	27.067649	-3.537059	-8.341654	7.274477	-8.711170	64.231579	28.840824	39.747724	-9.113885	3.652988	13.429493	-8.024351	117.497612	30.985648	43.374730	-16.572426	5.408209
3.285714	-2.290064	-3.908801	94.131454	0.204272	0.977382	0.529678	5.783753	-5.387019	-16.081175	12.120958	0.211551	25.517093	17.532625	0.000000	2.977462	3.651809	-3.854503	2.372764	0.041413	20.099284	0.725568	0.000000	0.391886	-0.192967	0.748128	0.727772	-0.256646	0.794887	0.643830	-0.469180	0.794887	0.447887	-0.469180	0.654612	0.363906	-0.393499	0.607854	0.223924	-0.298906	0.561096	2.799206	-2.182884	4.160866	0.000000	0.000000	27.332351	-4.010585	-8.754118	8.971917	-8.106008	73.778936	20.734992	31.441041	-9.588285	2.185973	15.190461	-6.094326	139.049568	22.010559	36.557303	-17.773207	3.738757
3.309524	-2.470286	-4.065244	93.990680	0.204165	0.976057	0.528392	5.924341	-5.641299	-16.048016	12.264049	0.214048	25.802704	17.485841	0.000000	2.869116	3.901786	-3.185505	2.032568	0.035475	20.001899	-0.241336	0.000000	0.416921	-0.216738	0.809481	0.774264	-0.288261	0.860074	0.684959	-0.526976	0.860074	0.476499	-0.526976	0.708296	0.387153	-0.441971	0.657703	0.238229	-0.335726	0.607111	2.978025	-2.451778	4.502092	0.000000	0.000000	27.606192	-4.360917	-9.202817	10.648844	-7.559773	83.694445	14.247288	23.652018	-9.857845	0.692519	16.967923	-4.317871	159.685209	14.641604	29.903208	-17.612655	1.921988
3.333333	-2.682105	-4.224150	93.837222	0.204308	0.974973	0.527126	6.046002	-5.895840	-15.959798	12.337979	0.215338	26.071842	17.431536	0.000000	2.778322	4.162277	-2.674759	1.726185	0.030128	19.850432	-1.039861	0.000000	0.440735	-0.247819	0.854463	0.818490	-0.329599	0.907867	0.724084	-0.602547	0.907867	0.503717	-0.602547	0.747655	0.409267	-0.505353	0.694251	0.251836	-0.383872	0.640848	3.148129	-2.803379	4.752269	0.000000	0.000000	27.867503	-4.456838	-9.415801	12.137104	-7.044993	93.652060	9.472834	16.602940	-10.043346	-0.633547	18.492304	-2.944167	177.725446	9.196215	22.925020	-16.761194	0.755038
3.357143	-2.894464	-4.392520	93.707640	0.204602	0.974195	0.525939	6.151739	-6.122963	-15.848995	12.331664	0.215228	26.284510	17.377053	0.000000	2.726650	4.405764	-2.302397	1.466948	0.025603	19.649098	-1.651246	0.000000	0.464463	-0.280783	0.862404	0.862555	-0.373441	0.916304	0.763067	-0.682695	0.916304	0.530835	-0.682695	0.754603	0.431301	-0.572572	0.700703	0.265394	-0.434932	0.646803	3.317616	-3.176269	4.796432	0.000000	0.000000	28.091319	-4.313695	-9.312703	13.331666	-6.527014	103.052964	6.400066	10.534731	-10.125261	-1.796340	19.465945	-1.997434	191.743633	5.763667	15.799426	-15.549301	0.523958
3.380952	-3.093496	-4.572399	93.616829	0.205012	0.973776	0.524896	6.248892	-6.310991	-15.726826	12.245766	0.213729	26.409496	17.324413	0.000000	2.729889	4.617434	-2.115329	1.270420	0.022173	19.415646	-1.990319	0.000000	0.487522	-0.313560	0.827125	0.905378	-0.417034	0.878821	0.800951	-0.762389	0.878821	0.557189	-0.762389	0.723735	0.452713	-0.639411	0.672039	0.278570	-0.485704	0.620344	3.482324	-3.547049	4.600222	0.000000	0.000000	28.269616	-3.946579	-8.927684	14.218630	-5.979690	111.023322	4.988015	5.704853	-10.035426	-2.727460	19.767580	-1.470852	200.882095	4.267856	9.682283	-14.422733	0.866974
3.404762	-3.268079	-4.752093	93.580492	0.205510	0.973764	0.524067	6.329592	-6.450467	-15.607082	12.084388	0.210912	26.422819	17.272419	0.000000	2.786585	4.785265	-2.151248	1.143088	0.019951	19.170473	-1.972520	0.000000	0.507439	-0.344343	0.752826	0.942364	-0.457976	0.799878	0.833671	-0.837234	0.799878	0.579952	-0.837234	0.658723	0.471207	-0.702183	0.611671	0.289950	-0.533387	0.564620	3.624583	-3.895272	4.186995	0.000000	0.000000	28.385724	-3.376461	-8.287777	14.892707	-5.355200	116.822963	5.028832	2.333356	-9.657356	-3.378222	19.459467	-1.308781	204.626181	4.411764	5.129406	-13.230258	1.449938
3.428571	-3.417999	-4.913281	93.618794	0.206090	0.974198	0.523527	6.373155	-6.539816	-15.510150	11.843167	0.206702	26.316066	17.215635	0.000000	2.883250	4.907006	-2.439028	1.083938	0.018918	18.929840	-1.517793	0.000000	0.520472	-0.374042	0.653393	0.966568	-0.497476	0.694231	0.855083	-0.909445	0.694231	0.594847	-0.909445	0.571719	0.483310	-0.762746	0.530882	0.297398	-0.579391	0.490045	3.717679	-4.231235	3.633979	0.000000	0.000000	28.436456	-2.632493	-7.518881	15.440922	-4.556227	120.678357	5.903725	0.550232	-8.998713	-3.822845	18.756168	-1.475565	202.770524	5.789803	2.299555	-11.794315	2.056297
